HIERARCHY
ROOT Bone
{
	OFFSET 0.000000 0.039430 0.039915
	CHANNELS 6 Xposition Yposition Zposition Xrotation Yrotation Zrotation
	JOINT Bone.001
	{
		OFFSET 0.000000 0.000000 0.170753
		CHANNELS 3 Xrotation Yrotation Zrotation
		JOINT Bone.002
		{
			OFFSET 0.000000 -0.024421 0.088528
			CHANNELS 3 Xrotation Yrotation Zrotation
			End Site
			{
				OFFSET 0.000000 -0.016790 0.093107
			}
		}
		JOINT Bone.003
		{
			OFFSET 0.000000 -0.024421 0.088528
			CHANNELS 3 Xrotation Yrotation Zrotation
			JOINT Bone.004
			{
				OFFSET 0.103791 0.000000 0.001526
				CHANNELS 3 Xrotation Yrotation Zrotation
				JOINT Bone.005
				{
					OFFSET 0.111423 0.000000 -0.001526
					CHANNELS 3 Xrotation Yrotation Zrotation
					End Site
					{
						OFFSET 0.195372 0.000000 0.001526
					}
				}
			}
		}
		JOINT Bone.006
		{
			OFFSET -0.000402 -0.024421 0.088038
			CHANNELS 6 Xposition Yposition Zposition Xrotation Yrotation Zrotation
			JOINT Bone.007
			{
				OFFSET -0.103791 0.000000 0.001526
				CHANNELS 3 Xrotation Yrotation Zrotation
				JOINT Bone.008
				{
					OFFSET -0.111423 0.000000 -0.001526
					CHANNELS 3 Xrotation Yrotation Zrotation
					End Site
					{
						OFFSET -0.195372 0.000000 0.001526
					}
				}
			}
		}
	}
}
MOTION
Frames: 1
Frame Time: 0.041667
0.000000 0.039430 0.139915 -0.000000 0.000000 -0.000000 -0.000000 -0.000000 0.000000 -0.000000 -0.000000 -0.000000 -0.000002 0.000000 -0.000000 -0.000002 0.000000 -0.000000 0.000000 0.000000 -0.000000 -0.000402 -0.024421 0.088038 0.000002 -0.000000 0.000000 0.000002 -0.000000 0.000000 -0.000000 -0.000000 0.000000 
